<svg width="550" height="95" viewBox="0 0 550 95" fill="none" xmlns="http://www.w3.org/2000/svg">
<path d="M72.5 35L92.5 35C94.1667 35 95 35.8333 95 37.5L95 92.5C95 94.1667 94.1667 95 92.5 95H72.5C70.8333 95 70 94.1667 70 92.5L70 37.5C70 35.8333 70.8333 35 72.5 35Z" fill="#ECECEC"/>
<path d="M107.5 0L127.5 0C129.167 0 130 0.833333 130 2.5V57.5C130 59.1667 129.167 60 127.5 60L107.5 60C105.833 60 105 59.1667 105 57.5L105 2.5C105 0.833333 105.833 0 107.5 0Z" fill="#ECECEC"/>
<path d="M212.5 0L232.5 0C234.167 0 235 0.833333 235 2.5V57.5C235 59.1667 234.167 60 232.5 60L212.5 60C210.833 60 210 59.1667 210 57.5V2.5C210 0.833333 210.833 0 212.5 0Z" fill="#ECECEC"/>
<path d="M247.5 0L267.5 0C269.167 0 270 0.833333 270 2.5V57.5C270 59.1667 269.167 60 267.5 60L247.5 60C245.833 60 245 59.1667 245 57.5V2.5C245 0.833333 245.833 0 247.5 0Z" fill="#ECECEC"/>
<path d="M352.5 0L372.5 0C374.167 0 375 0.833333 375 2.5V57.5C375 59.1667 374.167 60 372.5 60L352.5 60C350.833 60 350 59.1667 350 57.5V2.5C350 0.833333 350.833 0 352.5 0Z" fill="#ECECEC"/>
<path d="M387.5 0L407.5 0C409.167 0 410 0.833333 410 2.5V57.5C410 59.1667 409.167 60 407.5 60L387.5 60C385.833 60 385 59.1667 385 57.5V2.5C385 0.833333 385.833 0 387.5 0Z" fill="#ECECEC"/>
<path d="M492.5 35L512.5 35C514.167 35 515 35.8333 515 37.5V92.5C515 94.1667 514.167 95 512.5 95H492.5C490.833 95 490 94.1667 490 92.5V37.5C490 35.8333 490.833 35 492.5 35Z" fill="#ECECEC"/>
<rect y="70" width="25" height="25" rx="2" fill="#ECECEC"/>
<rect x="35" y="35" width="25" height="25" rx="2" fill="#ECECEC"/>
<rect x="105" y="70" width="25" height="25" rx="2" fill="#ECECEC"/>
<rect x="140" width="25" height="25" rx="2" fill="#ECECEC"/>
<rect x="420" y="35" width="25" height="25" rx="2" fill="#ECECEC"/>
<rect x="525" width="25" height="25" rx="2" fill="#ECECEC"/>
<rect width="25" height="25" rx="2" transform="matrix(-1 0 0 1 340 0)" fill="#ECECEC"/>
<rect x="175" y="35" width="25" height="25" rx="2" fill="#ECECEC"/>
<rect x="455" y="70" width="25" height="25" rx="2" fill="#ECECEC"/>
<rect width="25" height="25" rx="2" transform="matrix(-1 0 0 1 305 35)" fill="#ECECEC"/>
<rect x="210" y="70" width="25" height="25" rx="2" fill="#ECECEC"/>
<rect x="245" y="70" width="25" height="25" rx="2" fill="#ECECEC"/>
</svg>
