<svg width="447" height="98" viewBox="0 0 447 98" fill="none" xmlns="http://www.w3.org/2000/svg">
<path d="M35 22.5L35 2.5C35 0.833334 35.8472 -3.70333e-08 37.5417 -1.111e-07L93.4583 -2.5553e-06C95.1528 -2.62936e-06 96 0.833331 96 2.5L96 22.5C96 24.1667 95.1528 25 93.4583 25L37.5417 25C35.8472 25 35 24.1667 35 22.5Z" fill="#ECECEC"/>
<path d="M176 23.5L176 3.5C176 1.83333 176.847 1 178.542 1L234.458 0.999997C236.153 0.999997 237 1.83333 237 3.5L237 23.5C237 25.1667 236.153 26 234.458 26L178.542 26C176.847 26 176 25.1667 176 23.5Z" fill="#ECECEC"/>
<path d="M249.5 1L269.5 1C271.167 1 272 1.84722 272 3.54167V59.4583C272 61.1528 271.167 62 269.5 62L249.5 62C247.833 62 247 61.1528 247 59.4583V3.54167C247 1.84722 247.833 1 249.5 1Z" fill="#ECECEC"/>
<path d="M284.5 1L304.5 1C306.167 1 307 1.84722 307 3.54167V59.4583C307 61.1528 306.167 62 304.5 62L284.5 62C282.833 62 282 61.1528 282 59.4583V3.54167C282 1.84722 282.833 1 284.5 1Z" fill="#ECECEC"/>
<path d="M317 23.5L317 3.5C317 1.83333 317.847 1 319.542 1L375.458 0.999997C377.153 0.999997 378 1.83333 378 3.5L378 23.5C378 25.1667 377.153 26 375.458 26L319.542 26C317.847 26 317 25.1667 317 23.5Z" fill="#ECECEC"/>
<path d="M389.5 37L409.5 37C411.167 37 412 37.8472 412 39.5417V95.4583C412 97.1528 411.167 98 409.5 98H389.5C387.833 98 387 97.1528 387 95.4583V39.5417C387 37.8472 387.833 37 389.5 37Z" fill="#ECECEC"/>
<path d="M424.5 1L444.5 1C446.167 1 447 1.84722 447 3.54167V59.4583C447 61.1528 446.167 62 444.5 62L424.5 62C422.833 62 422 61.1528 422 59.4583V3.54167C422 1.84722 422.833 1 424.5 1Z" fill="#ECECEC"/>
<rect x="35" y="72" width="25" height="26" rx="2" fill="#ECECEC"/>
<rect x="106" width="25" height="26" rx="2" fill="#ECECEC"/>
<rect x="141" y="36" width="25" height="26" rx="2" fill="#ECECEC"/>
<rect x="212" y="36" width="25" height="26" rx="2" fill="#ECECEC"/>
<rect x="282" y="72" width="25" height="26" rx="2" fill="#ECECEC"/>
<rect x="317" y="72" width="25" height="26" rx="2" fill="#ECECEC"/>
<rect x="352" y="36" width="25" height="26" rx="2" fill="#ECECEC"/>
<rect x="106" y="72" width="25" height="26" rx="2" fill="#ECECEC"/>
<rect y="72" width="25" height="26" rx="2" fill="#ECECEC"/>
</svg>
