<svg width="130" height="96" viewBox="0 0 130 96" fill="none" xmlns="http://www.w3.org/2000/svg">
<path d="M72.5 35L92.5 35C94.1667 35 95 35.8333 95 37.5L95 92.5C95 94.1667 94.1667 95 92.5 95H72.5C70.8333 95 70 94.1667 70 92.5L70 37.5C70 35.8333 70.8333 35 72.5 35Z" fill="#ECECEC"/>
<path d="M107.5 0L127.5 0C129.167 0 130 0.833333 130 2.5V57.5C130 59.1667 129.167 60 127.5 60L107.5 60C105.833 60 105 59.1667 105 57.5L105 2.5C105 0.833333 105.833 0 107.5 0Z" fill="#ECECEC"/>
<rect y="71" width="25" height="25" rx="2" fill="#ECECEC"/>
<rect x="35" y="36" width="25" height="25" rx="2" fill="#ECECEC"/>
</svg>
