<svg width="130" height="97" viewBox="0 0 130 97" fill="none" xmlns="http://www.w3.org/2000/svg">
<rect y="71" width="25" height="26" rx="2" fill="#ECECEC"/>
<path d="M-1.09278e-07 22.5L-9.83506e-07 2.5C-1.05636e-06 0.833333 0.847221 -3.70333e-08 2.54167 -1.111e-07L58.4583 -2.55529e-06C60.1528 -2.62936e-06 61 0.833331 61 2.5L61 22.5C61 24.1667 60.1528 25 58.4583 25L2.54167 25C0.847222 25 -3.64262e-08 24.1667 -1.09278e-07 22.5Z" fill="#ECECEC"/>
<path d="M72.5 36L92.5 36C94.1667 36 95 36.8472 95 38.5417L95 94.4583C95 96.1528 94.1667 97 92.5 97H72.5C70.8333 97 70 96.1528 70 94.4583L70 38.5417C70 36.8472 70.8333 36 72.5 36Z" fill="#ECECEC"/>
<path d="M107.5 0L127.5 0C129.167 0 130 0.847222 130 2.54167V58.4583C130 60.1528 129.167 61 127.5 61L107.5 61C105.833 61 105 60.1528 105 58.4583L105 2.54167C105 0.847222 105.833 0 107.5 0Z" fill="#ECECEC"/>
<rect x="35" y="35" width="25" height="26" rx="2" fill="#ECECEC"/>
</svg>
