<?xml version="1.0" standalone="no"?>
<!DOCTYPE svg PUBLIC "-//W3C//DTD SVG 20010904//EN"
 "http://www.w3.org/TR/2001/REC-SVG-20010904/DTD/svg10.dtd">
<svg version="1.0" xmlns="http://www.w3.org/2000/svg"
 width="1393.000000pt" height="715.000000pt" viewBox="0 0 1393.000000 715.000000"
 preserveAspectRatio="xMidYMid meet">

<g transform="translate(0.000000,715.000000) scale(0.100000,-0.100000)"
fill="#000000" stroke="none">
<path d="M0 3575 l0 -3575 6965 0 6965 0 0 3575 0 3575 -6965 0 -6965 0 0
-3575z m7131 1710 c307 -18 666 -164 921 -373 109 -89 251 -240 277 -296 35
-71 33 -166 -3 -240 -49 -100 -141 -156 -256 -156 -103 0 -140 20 -264 145
-188 190 -365 289 -606 341 -135 29 -355 25 -490 -9 -58 -14 -137 -39 -177
-55 -543 -226 -831 -825 -667 -1390 53 -184 155 -355 294 -492 153 -153 326
-250 545 -306 96 -25 129 -28 260 -28 338 0 589 106 837 354 58 59 123 115
145 126 22 11 68 20 111 22 66 4 79 1 137 -27 104 -51 157 -136 158 -251 1
-94 -24 -141 -135 -256 -116 -120 -210 -198 -335 -276 -311 -195 -652 -280
-1037 -256 -644 40 -1219 458 -1467 1065 -44 108 -92 278 -110 398 -17 103
-17 397 0 500 76 486 351 913 764 1188 163 109 401 207 602 248 101 21 297 38
370 33 22 -2 79 -6 126 -9z m-3515 -22 c34 -11 66 -34 104 -73 48 -48 69 -86
160 -275 57 -121 162 -339 233 -485 71 -146 188 -386 259 -535 72 -148 170
-351 218 -450 454 -937 559 -1155 570 -1189 19 -58 8 -160 -23 -221 -53 -104
-139 -158 -260 -164 -71 -3 -84 0 -142 28 -35 17 -78 48 -96 69 -18 20 -65
104 -105 187 -39 82 -131 271 -203 419 -72 148 -131 270 -131 272 0 1 -64 134
-143 296 -78 161 -233 479 -342 706 -110 227 -203 411 -208 409 -5 -1 -113
-216 -239 -477 -126 -261 -321 -664 -433 -895 -419 -866 -430 -888 -471 -928
-68 -68 -106 -82 -214 -82 -92 0 -98 1 -154 35 -112 68 -170 191 -147 315 6
30 85 205 201 445 106 217 216 445 245 505 29 61 109 226 179 369 69 142 126
260 126 261 0 1 63 132 141 291 78 159 154 316 169 349 91 193 334 685 355
717 66 100 222 145 351 101z m5582 -13 c33 -17 75 -48 93 -68 18 -20 65 -104
105 -187 39 -82 131 -271 203 -419 72 -148 131 -270 131 -272 0 -1 64 -134
143 -296 78 -161 233 -479 342 -706 110 -227 203 -411 208 -409 5 1 113 216
239 477 126 261 321 664 433 895 419 866 430 888 471 928 68 68 106 82 214 82
92 0 98 -1 154 -35 112 -68 170 -191 147 -315 -6 -30 -85 -205 -201 -445 -106
-217 -216 -444 -245 -505 -29 -60 -109 -226 -179 -369 -69 -142 -126 -260
-126 -261 0 -1 -63 -132 -141 -291 -78 -159 -154 -316 -169 -349 -124 -264
-336 -688 -362 -724 -48 -65 -123 -103 -213 -109 -105 -7 -164 16 -235 88 -48
48 -69 86 -160 275 -57 121 -162 339 -233 485 -71 146 -188 387 -259 535 -72
149 -170 351 -218 450 -454 937 -559 1155 -570 1189 -18 55 -8 160 20 216 56
112 147 168 276 169 60 1 80 -4 132 -29z m-768 -1411 c153 -69 215 -247 139
-399 -33 -64 -86 -112 -152 -137 -23 -8 -189 -12 -592 -12 -542 -1 -561 0
-605 20 -59 26 -105 72 -138 134 -22 42 -26 63 -26 130 -1 70 3 87 29 134 16
29 47 68 69 87 74 63 64 62 676 63 537 1 556 0 600 -20z"/>
</g>
</svg>
