<svg width="1000" height="354" viewBox="0 0 1000 354" fill="none" xmlns="http://www.w3.org/2000/svg">
<rect width="1000" height="354" fill="#52B69A"/>
<path opacity="0.5" d="M128.832 253.661V133.004L165.664 149.334V269.999L128.832 253.661Z" fill="white"/>
<path d="M128.832 205.89L165.665 189.56L128.832 173.223L92 189.552L128.832 205.89Z" fill="#D9ED92"/>
<path d="M165.664 229.782V189.562L128.832 205.892V246.111L165.664 229.782Z" fill="#B5E48C"/>
<path d="M92 189.555L128.832 205.892V246.111L92 229.782V189.555Z" fill="#99D98C"/>
<path d="M165.664 149.333V269.998L202.496 253.661V213.442L239.321 197.112V237.331L276.153 220.993V100.336L239.321 116.666V156.885L202.496 173.222V133.003L165.664 149.333Z" fill="white"/>
<path opacity="0.5" d="M239.323 237.332L202.498 220.995V213.443L239.323 197.113V237.332Z" fill="white"/>
<path opacity="0.5" d="M239.323 156.885L202.498 140.555V100.328L239.323 116.666V156.885Z" fill="white"/>
<path opacity="0.75" d="M128.832 133.006L165.664 149.335L202.497 133.006L165.664 116.668L128.832 133.006Z" fill="white"/>
<path opacity="0.75" d="M202.498 173.226L239.323 156.888L202.498 140.559V173.226Z" fill="white"/>
<path opacity="0.75" d="M202.498 100.33L239.323 116.667L276.155 100.338L239.323 84L202.498 100.33Z" fill="white"/>
<path d="M349.818 191.989V100.617H367.066V132.636C369.621 130.536 372.568 128.962 375.737 128.005C378.712 127.109 381.802 126.646 384.91 126.631C391.114 126.631 396.247 127.932 400.308 130.536C404.299 133.036 407.466 136.647 409.418 140.922C411.47 145.442 412.5 150.355 412.436 155.315V192.02H395.188V155.315C395.21 152.845 394.557 150.415 393.299 148.287C392.075 146.185 390.321 144.438 388.211 143.218C386.06 141.958 383.603 141.307 381.108 141.336C378.664 141.32 376.26 141.948 374.138 143.156C372.038 144.327 370.266 146.006 368.987 148.037C367.689 150.074 367.011 152.442 367.035 154.855V192.036L349.818 191.989Z" fill="white"/>
<path d="M459.531 193.49C453.331 193.6 447.213 192.066 441.804 189.046C436.715 186.187 432.471 182.045 429.496 177.035C426.456 171.901 424.891 166.033 424.972 160.073C424.889 154.113 426.454 148.244 429.496 143.111C432.468 138.097 436.713 133.952 441.804 131.092C447.253 128.175 453.341 126.648 459.527 126.648C465.712 126.648 471.801 128.175 477.249 131.092C482.34 133.954 486.588 138.099 489.566 143.111C492.603 148.246 494.168 154.113 494.089 160.073C494.166 166.033 492.602 171.899 489.566 177.035C486.585 182.043 482.338 186.185 477.249 189.046C471.842 192.065 465.728 193.599 459.531 193.49ZM459.531 178.847C462.75 178.93 465.921 178.057 468.641 176.34C471.197 174.674 473.24 172.336 474.544 169.585C475.913 166.598 476.622 163.353 476.622 160.069C476.622 156.785 475.913 153.54 474.544 150.553C473.238 147.803 471.195 145.466 468.641 143.798C465.886 142.157 462.736 141.29 459.527 141.29C456.317 141.29 453.167 142.157 450.413 143.798C447.858 145.466 445.816 147.803 444.509 150.553C443.145 153.542 442.439 156.786 442.439 160.069C442.439 163.352 443.145 166.597 444.509 169.585C445.813 172.336 447.857 174.674 450.413 176.34C453.135 178.058 456.309 178.931 459.531 178.847V178.847Z" fill="white"/>
<path d="M506.658 191.992V154.061C506.609 149.229 507.865 144.474 510.295 140.292C512.788 136.06 516.426 132.612 520.793 130.343C525.356 127.875 530.865 126.644 537.32 126.649C540.227 126.63 543.125 126.995 545.936 127.735C548.515 128.422 550.989 129.454 553.29 130.804C555.48 132.084 557.467 133.681 559.186 135.544H559.311C561.092 133.691 563.121 132.091 565.34 130.788C567.66 129.436 570.155 128.408 572.757 127.735C575.588 127.007 578.503 126.65 581.428 126.673C587.883 126.673 593.392 127.904 597.954 130.366C602.319 132.64 605.955 136.087 608.452 140.316C610.879 144.498 612.136 149.253 612.09 154.084V192.015H594.842V154.061C594.865 151.804 594.234 149.588 593.023 147.68C591.813 145.765 590.153 144.173 588.186 143.041C586.121 141.894 583.796 141.292 581.432 141.292C579.067 141.292 576.742 141.894 574.677 143.041C572.68 144.158 570.994 145.752 569.77 147.68C568.559 149.588 567.927 151.804 567.951 154.061V191.992H550.703V154.061C550.722 151.804 550.091 149.59 548.884 147.68C547.673 145.763 546.01 144.171 544.039 143.041C541.974 141.894 539.649 141.292 537.285 141.292C534.92 141.292 532.595 141.894 530.53 143.041C528.535 144.158 526.851 145.752 525.63 147.68C524.42 149.588 523.788 151.804 523.812 154.061V191.992H506.658Z" fill="white"/>
<path d="M660.729 191.991C653.437 191.991 647.09 190.593 641.685 187.798C636.52 185.209 632.177 181.243 629.141 176.341C626.151 171.443 624.605 165.806 624.68 160.074C624.68 153.305 626.063 147.42 628.828 142.416C631.442 137.568 635.359 133.539 640.141 130.78C645.077 127.982 650.676 126.556 656.354 126.649C663.562 126.649 669.405 128.151 673.884 131.155C678.319 134.1 681.756 138.311 683.747 143.236C685.896 148.588 686.962 154.31 686.883 160.074C686.883 160.901 686.836 161.885 686.757 163.01C686.711 163.876 686.585 164.736 686.381 165.579H643.026C643.607 168.003 644.793 170.241 646.476 172.085C648.18 173.866 650.295 175.207 652.638 175.99C655.326 176.906 658.154 177.353 660.995 177.309H678.823V191.952L660.729 191.991ZM642.885 154.06H669.651C669.497 152.55 669.203 151.057 668.772 149.601C668.379 148.287 667.784 147.041 667.008 145.907C666.286 144.854 665.397 143.926 664.374 143.158C663.31 142.377 662.12 141.782 660.854 141.401C659.428 140.973 657.945 140.763 656.456 140.776C654.53 140.742 652.62 141.126 650.858 141.901C649.296 142.603 647.903 143.631 646.773 144.915C645.678 146.177 644.809 147.617 644.202 149.172C643.577 150.746 643.135 152.386 642.885 154.06Z" fill="white"/>
<path d="M746.687 129.209C750.71 130.805 754.318 133.288 757.24 136.472C760.136 139.673 762.359 143.42 763.778 147.491C765.322 151.935 766.085 156.611 766.036 161.314C766.161 167.113 764.847 172.854 762.21 178.026C759.749 182.72 756.028 186.64 751.462 189.35C746.852 192.104 741.405 193.481 735.123 193.481C732.504 193.491 729.899 193.112 727.393 192.357C725.007 191.648 722.758 190.548 720.737 189.1C718.806 187.727 717.128 186.034 715.774 184.094H715.648V219.526H698.4V161.314C698.4 154.301 699.783 148.186 702.548 142.969C705.192 137.881 709.282 133.682 714.308 130.896C719.383 128.053 725.354 126.634 732.222 126.639C737.166 126.547 742.08 127.42 746.687 129.209V129.209ZM723.496 143.797C721.017 145.48 719.059 147.82 717.844 150.552C716.56 153.562 715.899 156.798 715.899 160.068C715.899 163.338 716.56 166.574 717.844 169.584C719.057 172.318 721.015 174.658 723.496 176.339C726.125 177.978 729.164 178.846 732.265 178.846C735.366 178.846 738.405 177.978 741.034 176.339C743.485 174.641 745.419 172.304 746.624 169.584C747.908 166.574 748.569 163.338 748.569 160.068C748.569 156.798 747.908 153.562 746.624 150.552C745.417 147.833 743.483 145.497 741.034 143.797C738.405 142.159 735.366 141.29 732.265 141.29C729.164 141.29 726.125 142.159 723.496 143.797V143.797Z" fill="white"/>
<path d="M803.871 193.49C798.416 193.614 793.058 192.039 788.544 188.984C784.146 185.942 780.648 181.781 778.415 176.934C775.996 171.688 774.783 165.971 774.863 160.198C774.783 154.273 776.187 148.422 778.948 143.173C781.639 138.117 785.717 133.927 790.708 131.092C795.819 128.124 801.935 126.643 809.053 126.648C816.261 126.648 822.337 128.15 827.281 131.155C832.128 134.055 836.048 138.266 838.587 143.298C841.23 148.539 842.574 154.334 842.507 160.198V191.991H825.259V181.354H825.008C823.748 183.616 822.164 185.681 820.304 187.485C818.33 189.378 816.001 190.866 813.452 191.866C810.393 193.019 807.14 193.571 803.871 193.49V193.49ZM808.771 178.847C811.852 178.926 814.882 178.05 817.442 176.341C819.908 174.631 821.847 172.27 823.04 169.523C824.363 166.502 825.026 163.236 824.984 159.941C825.035 156.687 824.371 153.462 823.04 150.491C821.819 147.795 819.884 145.481 817.442 143.798C814.882 142.089 811.852 141.213 808.771 141.291C805.63 141.207 802.539 142.081 799.912 143.798C797.444 145.467 795.487 147.783 794.259 150.491C792.924 153.461 792.261 156.687 792.315 159.941C792.269 163.236 792.932 166.504 794.259 169.523C795.46 172.281 797.42 174.645 799.912 176.341C802.537 178.056 805.625 178.931 808.763 178.847H808.771Z" fill="white"/>
<path d="M858.752 191.989V100.617H876V191.989H858.752Z" fill="white"/>
<path d="M361.641 243.609C360.486 244.713 358.735 245.265 356.388 245.265H352.468V253.66H349.826V233.559H356.349C358.623 233.559 360.355 234.105 361.547 235.199C362.106 235.747 362.55 236.4 362.855 237.119C363.16 237.839 363.32 238.612 363.325 239.393C363.33 240.174 363.181 240.948 362.885 241.672C362.589 242.396 362.153 243.054 361.602 243.609H361.641ZM359.626 242.149C359.985 241.799 360.264 241.375 360.444 240.907C360.624 240.44 360.701 239.939 360.669 239.439C360.669 236.956 359.242 235.722 356.388 235.722H352.468V243.102H356.388C357.549 243.201 358.706 242.861 359.626 242.149Z" fill="white"/>
<path d="M387.662 253.664L382.864 245.441H379.673V253.664H377.039V233.562H383.554C384.886 233.524 386.208 233.791 387.419 234.343C388.394 234.801 389.212 235.534 389.771 236.452C390.272 237.266 390.565 238.191 390.623 239.144C390.681 240.098 390.504 241.051 390.106 241.92C389.708 242.789 389.102 243.547 388.341 244.128C387.58 244.71 386.687 245.096 385.741 245.253L390.806 253.672L387.662 253.664ZM379.665 243.316H383.546C384.125 243.361 384.708 243.291 385.26 243.11C385.811 242.929 386.322 242.641 386.761 242.262C387.123 241.892 387.406 241.451 387.591 240.967C387.775 240.484 387.858 239.968 387.835 239.451C387.866 238.94 387.788 238.429 387.605 237.951C387.423 237.473 387.14 237.039 386.776 236.678C385.862 235.959 384.708 235.611 383.546 235.702H379.665V243.316Z" fill="white"/>
<path d="M409.066 252.555C407.53 251.69 406.262 250.424 405.397 248.892C404.517 247.265 404.057 245.446 404.057 243.597C404.057 241.749 404.517 239.93 405.397 238.303C406.264 236.773 407.532 235.507 409.066 234.64C410.641 233.779 412.409 233.328 414.205 233.328C416.002 233.328 417.769 233.779 419.344 234.64C420.872 235.499 422.133 236.761 422.99 238.287C423.865 239.921 424.323 241.745 424.323 243.597C424.323 245.45 423.865 247.274 422.99 248.908C422.133 250.434 420.872 251.695 419.344 252.555C417.769 253.416 416.002 253.867 414.205 253.867C412.409 253.867 410.641 253.416 409.066 252.555V252.555ZM417.996 250.61C419.131 249.944 420.055 248.973 420.661 247.807C421.301 246.492 421.633 245.05 421.633 243.59C421.633 242.129 421.301 240.687 420.661 239.373C420.055 238.216 419.137 237.251 418.011 236.585C416.84 235.944 415.526 235.608 414.189 235.608C412.853 235.608 411.539 235.944 410.367 236.585C409.233 237.258 408.314 238.238 407.717 239.412C407.078 240.726 406.745 242.168 406.745 243.629C406.745 245.09 407.078 246.531 407.717 247.846C408.321 249.013 409.245 249.986 410.383 250.649C411.549 251.29 412.858 251.626 414.189 251.626C415.521 251.626 416.83 251.29 417.996 250.649V250.61Z" fill="white"/>
<path d="M449.967 243.609C448.817 244.713 447.066 245.265 444.714 245.265H440.833V253.66H438.191V233.559H444.714C446.988 233.559 448.721 234.105 449.912 235.199C450.471 235.747 450.915 236.4 451.22 237.119C451.525 237.839 451.685 238.612 451.69 239.393C451.695 240.174 451.546 240.948 451.25 241.672C450.954 242.396 450.518 243.054 449.967 243.609V243.609ZM447.937 242.149C448.296 241.799 448.575 241.375 448.755 240.907C448.935 240.44 449.011 239.939 448.979 239.439C448.979 236.956 447.552 235.722 444.699 235.722H440.818V243.102H444.699C445.86 243.201 447.016 242.861 447.937 242.149V242.149Z" fill="white"/>
<path d="M467.99 235.694V242.419H475.375V244.582H468.013V251.501H476.237V253.664H465.355V233.531H476.214V235.694H467.99Z" fill="white"/>
<path d="M501.248 253.664L496.442 245.441H493.251V253.664H490.617V233.562H497.132C498.464 233.524 499.786 233.791 500.997 234.343C501.974 234.798 502.793 235.532 503.349 236.452C503.882 237.372 504.154 238.42 504.133 239.482C504.178 240.863 503.714 242.212 502.829 243.275C501.944 244.338 500.698 245.042 499.327 245.253L504.384 253.664H501.248ZM493.244 243.316H497.124C497.704 243.361 498.286 243.291 498.838 243.11C499.389 242.929 499.9 242.641 500.339 242.262C500.702 241.892 500.984 241.451 501.169 240.967C501.353 240.484 501.437 239.968 501.413 239.451C501.444 238.94 501.366 238.429 501.184 237.951C501.001 237.473 500.718 237.039 500.354 236.678C499.44 235.959 498.286 235.611 497.124 235.702H493.244V243.316Z" fill="white"/>
<path d="M531.04 233.559V235.691H525.552V253.653H522.918V235.691H517.383V233.559H531.04Z" fill="white"/>
<path d="M558.809 233.559L552.239 246.054V253.637H549.597V246.054L542.996 233.559H545.936L550.922 243.711L555.901 233.559H558.809Z" fill="white"/>
<path d="M602.54 233.559V235.691H597.052V253.653H594.418V235.691H588.883V233.559H602.54Z" fill="white"/>
<path d="M618.847 235.694V242.419H626.201V244.582H618.847V251.501H627.071V253.664H616.174V233.531H627.04V235.694H618.847Z" fill="white"/>
<path d="M641.78 238.303C642.634 236.772 643.888 235.501 645.41 234.625C646.965 233.736 648.729 233.277 650.522 233.297C652.555 233.241 654.56 233.784 656.284 234.859C657.941 235.929 659.201 237.508 659.875 239.357H656.739C656.226 238.205 655.383 237.23 654.316 236.553C653.174 235.881 651.864 235.542 650.537 235.577C649.208 235.558 647.897 235.895 646.743 236.553C645.601 237.231 644.681 238.224 644.093 239.412C643.463 240.726 643.137 242.165 643.137 243.621C643.137 245.078 643.463 246.516 644.093 247.83C644.687 248.99 645.601 249.957 646.727 250.619C647.879 251.283 649.191 251.623 650.522 251.603C651.847 251.637 653.156 251.302 654.301 250.634C655.369 249.966 656.212 248.995 656.723 247.846H659.859C659.183 249.683 657.922 251.249 656.268 252.305C654.541 253.374 652.539 253.916 650.506 253.867C648.716 253.888 646.952 253.436 645.394 252.555C643.873 251.693 642.617 250.431 641.764 248.908C640.889 247.282 640.432 245.466 640.432 243.621C640.432 241.776 640.889 239.96 641.764 238.334L641.78 238.303Z" fill="white"/>
<path d="M689.738 233.559V253.66H687.096V244.547H676.818V253.66H674.184V233.559H676.818V242.383H687.096V233.559H689.738Z" fill="white"/>
<path d="M738.244 253.662L735.609 251.006C734.725 251.961 733.659 252.73 732.473 253.271C731.275 253.78 729.982 254.033 728.679 254.013C727.405 254.028 726.144 253.761 724.986 253.232C723.965 252.778 723.099 252.037 722.493 251.1C721.893 250.13 721.588 249.007 721.615 247.867C721.592 246.535 722.014 245.233 722.814 244.165C723.735 243.007 724.966 242.132 726.366 241.643C725.827 241.035 725.378 240.354 725.033 239.62C724.756 238.982 724.617 238.293 724.625 237.597C724.617 236.788 724.843 235.994 725.276 235.309C725.729 234.607 726.377 234.05 727.142 233.708C728.025 233.309 728.987 233.112 729.957 233.13C730.899 233.11 731.832 233.316 732.677 233.732C733.416 234.106 734.021 234.698 734.41 235.426C734.788 236.174 734.951 237.013 734.88 237.847H732.246C732.273 237.508 732.227 237.167 732.112 236.847C731.997 236.527 731.816 236.234 731.58 235.989C731.341 235.761 731.06 235.584 730.751 235.467C730.443 235.351 730.114 235.297 729.784 235.309C729.102 235.278 728.433 235.51 727.918 235.957C727.685 236.165 727.501 236.42 727.377 236.706C727.254 236.992 727.195 237.302 727.205 237.613C727.207 238.206 727.373 238.786 727.683 239.292C728.134 240.009 728.66 240.677 729.251 241.283L735.272 247.312L735.797 246.532L737.765 243.244H740.603L738.251 247.344C737.922 247.914 737.538 248.523 737.091 249.156L741.638 253.685L738.244 253.662ZM731.478 251.124C732.39 250.66 733.202 250.024 733.869 249.249L727.934 243.314C725.457 244.251 724.226 245.743 724.226 247.781C724.212 248.313 724.315 248.842 724.527 249.33C724.74 249.818 725.057 250.255 725.457 250.608C726.337 251.381 727.483 251.784 728.655 251.733C729.63 251.748 730.596 251.539 731.478 251.124Z" fill="white"/>
<path d="M784.679 234.789C786.238 235.556 787.528 236.776 788.379 238.287C789.229 239.948 789.672 241.785 789.672 243.649C789.672 245.512 789.229 247.35 788.379 249.01C787.529 250.512 786.238 251.72 784.679 252.47C782.89 253.304 780.93 253.713 778.956 253.664H772.684V233.563H778.956C780.934 233.512 782.896 233.933 784.679 234.789V234.789ZM784.922 249.439C786.296 248.065 786.981 246.136 786.976 243.653C787.04 242.589 786.89 241.524 786.534 240.52C786.179 239.515 785.625 238.592 784.906 237.803C783.526 236.397 781.543 235.695 778.956 235.695H775.31V251.501H778.956C781.566 251.501 783.55 250.814 784.922 249.439V249.439Z" fill="white"/>
<path d="M815.476 249.197H806.672L805.049 253.664H802.305L809.596 233.672H812.638L819.905 253.664H817.13L815.476 249.197ZM814.692 247.057L811.046 236.905L807.393 247.057H814.692Z" fill="white"/>
<path d="M845.878 233.559V235.691H840.39V253.653H837.756V235.691H832.221V233.559H845.878Z" fill="white"/>
<path d="M871.453 249.197H862.672L861.049 253.664H858.273L865.572 233.672H868.607L875.882 253.664H873.099L871.453 249.197ZM870.668 247.057L867.023 236.905L863.369 247.057H870.668Z" fill="white"/>
</svg>
