<svg width="350" height="158" viewBox="0 0 350 158" fill="none" xmlns="http://www.w3.org/2000/svg">
<path d="M26 109H15V26H26V109Z" fill="#273745"/>
<path d="M121 70.6518L120.903 108.962H110.022V71.3314C110.022 60.533 103.904 55.7505 99.2123 55.7505C96.517 55.6449 93.8416 56.2703 91.4485 57.5654C89.0555 58.8606 87.0269 60.781 85.5618 63.1382V70.6896L85.453 109H74.5712V71.3314C74.5712 60.533 68.4533 55.7505 63.762 55.7505C61.0677 55.7756 58.415 56.4446 56.0084 57.7059C53.6018 58.9671 51.5057 60.7869 49.8817 63.025V108.962H39V52H49.8817V58.0285C53.6121 54.1985 58.6313 52.0355 63.8708 52C73.7007 52 79.8186 55.2974 82.9864 60.2939C84.9565 57.7346 87.4483 55.6629 90.2816 54.2285C93.1149 52.7942 96.219 52.033 99.3695 52C114.773 52 121 61.5524 121 70.6518Z" fill="#273745"/>
<path d="M160.675 109.351C157.15 109.467 153.647 108.772 150.437 107.32C147.228 105.867 144.398 103.697 142.17 100.978V132H131V52H142.17V60.2618C145.422 56.0136 151.143 52 160.675 52C177.938 52 185 64.2754 185 80.5644C185 96.8533 177.938 109.351 160.675 109.351ZM142.17 65.9426V95.3961C155.177 114.031 172.676 106.782 172.676 80.5767C172.775 54.1241 155.177 47.3195 142.17 65.9426Z" fill="#273745"/>
<path d="M204 109H193V26H204V109Z" fill="#273745"/>
<path d="M229 36.1072C228.989 37.5034 228.539 38.8653 227.705 40.0205C226.872 41.1757 225.693 42.0724 224.318 42.5969C222.942 43.1215 221.433 43.2505 219.98 42.9674C218.527 42.6844 217.195 42.0022 216.155 41.0071C215.114 40.0119 214.41 38.7486 214.132 37.377C213.855 36.0054 214.016 34.5872 214.595 33.3017C215.175 32.0163 216.146 30.9215 217.387 30.1558C218.628 29.3901 220.082 28.988 221.566 29.0003C222.551 29.0052 223.525 29.1931 224.432 29.5534C225.34 29.9137 226.162 30.4391 226.853 31.0996C227.544 31.76 228.089 32.5424 228.457 33.4018C228.826 34.2612 229.01 35.1806 229 36.1072V36.1072ZM227.447 109H215.5V52.4694H227.447V109Z" fill="#273745"/>
<path d="M271 102.903C268.373 106.434 264.438 111 255.467 111C245.407 111 244.971 105.526 244.971 100.166V56.641H236V52.315H244.971V38H255.867V52.315H267.574V56.641H255.867V97.8958C255.867 101.2 255.104 105.867 258.93 106.888C261.23 107.582 265.939 106.548 268.615 101.427L271 102.903Z" fill="#273745"/>
<path d="M326 52L295.433 132H290.872L300.227 107.705L273 52H285.326L305.589 93.4491L321.403 52H326Z" fill="#273745"/>
<path d="M329.446 97.0083C330.298 96.9612 331.15 97.115 331.941 97.4589C332.733 97.8028 333.445 98.3285 334.028 98.9993C334.665 99.6246 335.171 100.389 335.511 101.242C335.85 102.095 336.017 103.016 335.999 103.944C335.999 104.867 335.825 105.781 335.486 106.629C335.147 107.477 334.651 108.242 334.028 108.876C333.454 109.567 332.746 110.115 331.955 110.481C331.163 110.848 330.307 111.024 329.446 110.997C328.586 111.001 327.735 110.814 326.945 110.449C326.155 110.085 325.442 109.549 324.852 108.876C324.245 108.235 323.767 107.467 323.449 106.618C323.131 105.769 322.979 104.859 323.002 103.944C322.986 103.029 323.141 102.119 323.459 101.269C323.777 100.42 324.251 99.648 324.853 99.0004C325.455 98.3528 326.172 97.8425 326.961 97.5002C327.75 97.1579 328.595 96.9906 329.446 97.0083V97.0083Z" fill="#FCC91C"/>
</svg>
