<svg width="1805" height="295" viewBox="0 0 1805 295" fill="none" xmlns="http://www.w3.org/2000/svg">
<g clip-path="url(#clip0)">
<path d="M42.6004 0C39.4004 0 36.9004 2.6 36.9004 5.7V289.1C36.9004 292.3 39.5004 294.8 42.6004 294.8C45.8004 294.8 48.3004 292.2 48.3004 289.1V5.7C48.3004 2.5 45.7004 0 42.6004 0Z" fill="black"/>
<path d="M2.8 0C1.3 0 0 1.3 0 2.8V291.9C0 293.4 1.3 294.7 2.8 294.7C4.3 294.7 5.6 293.5 5.6 291.9V2.8C5.6 1.3 4.3 0 2.8 0Z" fill="black"/>
<path d="M82.1996 0C78.2996 0 75.0996 3.2 75.0996 7.1V287.6C75.0996 291.5 78.2996 294.7 82.1996 294.7C86.0996 294.7 89.2996 291.5 89.2996 287.6V7.1C89.2996 3.2 86.0996 0 82.1996 0Z" fill="black"/>
<path d="M121.9 0C117.2 0 113.4 3.8 113.4 8.5V286.2C113.4 290.9 117.2 294.7 121.9 294.7C126.6 294.7 130.4 290.9 130.4 286.2V8.5C130.4 3.8 126.6 0 121.9 0Z" fill="black"/>
<path d="M161.5 0C156 0 151.6 4.4 151.6 9.9V137.5C151.6 143 156 147.4 161.5 147.4C167 147.4 171.4 143 171.4 137.5V9.9C171.4 4.4 167 0 161.5 0Z" fill="black"/>
<path d="M201.2 0C194.9 0 189.8 5.1 189.9 11.3V136.1C189.9 142.3 195 147.4 201.2 147.4C207.4 147.4 212.5 142.4 212.5 136.1V11.3C212.5 5.1 207.5 0 201.2 0Z" fill="black"/>
<path d="M240.8 0C233.7 0 228 5.8 228 12.8V134.6C228 141.7 233.7 147.4 240.8 147.4C247.9 147.4 253.6 141.6 253.6 134.6V12.8C253.6 5.7 247.9 0 240.8 0Z" fill="black"/>
<path d="M280.6 0C272.7 0 266.4 6.4 266.4 14.2V133.3C266.4 141.2 272.8 147.5 280.6 147.5C288.5 147.5 294.8 141.1 294.8 133.3V14.2C294.8 6.3 288.4 0 280.6 0Z" fill="black"/>
<path d="M472.9 234.8H438V30H522.8C571.5 30 591.5 57.4 591.5 92.3C591.5 127.2 570.3 154 522.8 154H472.9V234.8ZM523 121.7C545.8 121.7 556.2 110.2 556.2 92.3C556.2 74.4 545.8 62.3 523 62.3H472.8V121.7H523V121.7Z" fill="black"/>
<path d="M697.5 115.999C697.5 115.999 693.5 115.399 689.7 115.399C665.5 115.399 651.1 128.099 651.1 156.899V234.799H616.8V85.0992H648.5V105.899C654 96.3992 666.7 83.6992 692.6 83.6992C694 83.6992 697.5 83.9992 697.5 83.9992V115.999V115.999Z" fill="black"/>
<path d="M706.2 160.102C706.2 118.002 736.2 81.6016 783.8 81.6016C831.7 81.6016 861.7 117.902 861.7 160.102C861.7 202.202 831.7 238.302 783.8 238.302C736.2 238.302 706.2 202.202 706.2 160.102ZM783.8 208.002C808.9 208.002 827.4 189.002 827.4 160.102C827.4 131.002 808.9 111.902 783.8 111.902C759 111.902 740.5 130.902 740.5 160.102C740.5 188.902 759 208.002 783.8 208.002Z" fill="black"/>
<path d="M921.4 294.802H887.1V85.1016H918.8V106.402C928.6 91.1016 946.2 81.6016 969.3 81.6016C1013.7 81.6016 1038.8 117.102 1038.8 160.102C1038.8 202.802 1013.7 238.302 969.3 238.302C946.2 238.302 929.8 228.202 921.4 215.202V294.802V294.802ZM962.3 208.002C988.3 208.002 1004.4 186.902 1004.4 160.102C1004.4 132.402 988.3 111.402 962.3 111.402C936.1 111.402 920.2 132.502 920.2 160.102C920.2 186.902 936.1 208.002 962.3 208.002Z" fill="black"/>
<path d="M1056 186.899H1089.2C1090.1 199.899 1100.5 209.999 1121.5 209.999C1139.4 209.999 1149.2 203.399 1149.2 192.999C1149.2 161.299 1063.2 189.499 1063.2 128.699C1063.2 103.599 1085.7 81.6992 1122.6 81.6992C1165.6 81.6992 1180 111.099 1181.4 131.299H1148.5C1147.3 120.599 1139.3 109.699 1121.7 109.699C1104.7 109.699 1096 116.599 1096 127.599C1096 156.699 1182 131.099 1182 191.599C1182 216.999 1161.2 238.299 1119.4 238.299C1075.6 238.299 1057.7 214.299 1056 186.899Z" fill="black"/>
<path d="M1252.7 234.799H1218.4V112.499H1195.6V85.0992H1218.4V46.1992H1252.7V85.0992H1277.8V112.499H1252.7V234.799Z" fill="black"/>
<path d="M1381.9 115.999C1381.9 115.999 1377.9 115.399 1374.1 115.399C1349.9 115.399 1335.5 128.099 1335.5 156.899V234.799H1301.2V85.0992H1332.9V105.899C1338.4 96.3992 1351.1 83.6992 1377 83.6992C1378.4 83.6992 1381.9 83.9992 1381.9 83.9992V115.999V115.999Z" fill="black"/>
<path d="M1423.8 169.902C1426.4 193.602 1441.7 208.802 1465.6 208.802C1481.5 208.802 1495 200.702 1500.5 187.502H1535.1C1526.2 217.202 1499.6 238.302 1464.7 238.302C1419.4 238.302 1390 204.602 1390 159.802C1390 116.202 1420 81.6016 1464.4 81.6016C1508.8 81.6016 1538 115.302 1538 159.202C1538 164.702 1537.7 169.902 1537.7 169.902H1423.8V169.902ZM1424.4 144.502H1504C1501.1 123.702 1486.7 109.602 1464.5 109.602C1442.3 109.602 1427.9 124.002 1424.4 144.502Z" fill="black"/>
<path d="M1593.9 169.902C1596.5 193.602 1611.8 208.802 1635.7 208.802C1651.6 208.802 1665.1 200.702 1670.6 187.502H1705.2C1696.3 217.202 1669.7 238.302 1634.8 238.302C1589.5 238.302 1560.1 204.602 1560.1 159.802C1560.1 116.202 1590.1 81.6016 1634.5 81.6016C1678.9 81.6016 1708.1 115.302 1708.1 159.202C1708.1 164.702 1707.8 169.902 1707.8 169.902H1593.9V169.902ZM1594.5 144.502H1674.1C1671.2 123.702 1656.8 109.602 1634.6 109.602C1612.4 109.602 1598 124.002 1594.5 144.502Z" fill="black"/>
<path d="M1779.4 234.799H1745.1V112.499H1722.3V85.0992H1745.1V46.1992H1779.4V85.0992H1804.5V112.499H1779.4V234.799Z" fill="black"/>
</g>
<defs>
<clipPath id="clip0">
<rect width="1804.5" height="294.8" fill="white"/>
</clipPath>
</defs>
</svg>
