<svg width="401" height="194" viewBox="0 0 401 194" fill="none" xmlns="http://www.w3.org/2000/svg">
<g filter="url(#filter0_dd)">
<g clip-path="url(#clip0)">
<rect x="18" y="14" width="365" height="158" rx="16" fill="#FEFEFE"/>
<path d="M47.5433 43.9091V52.2635C47.5433 53.9062 46.3991 55.0824 44.603 55.0824C42.8004 55.0824 41.6626 53.9062 41.6626 52.2635V43.9091H39.2912V52.4616C39.2912 55.2741 41.4006 57.1982 44.603 57.1982C47.7926 57.1982 49.9148 55.2741 49.9148 52.4616V43.9091H47.5433ZM52.3901 60.6818H54.704V55.4531H54.7999C55.1642 56.169 55.9249 57.1726 57.6124 57.1726C59.9263 57.1726 61.6586 55.3381 61.6586 52.1037C61.6586 48.831 59.8752 47.054 57.606 47.054C55.8738 47.054 55.1515 48.0959 54.7999 48.8054H54.6657V47.1818H52.3901V60.6818ZM54.6593 52.0909C54.6593 50.1861 55.4775 48.9524 56.9668 48.9524C58.5073 48.9524 59.2999 50.2628 59.2999 52.0909C59.2999 53.9318 58.4945 55.2741 56.9668 55.2741C55.4902 55.2741 54.6593 53.9957 54.6593 52.0909ZM63.6401 60.6818H65.954V55.4531H66.0499C66.4142 56.169 67.1749 57.1726 68.8624 57.1726C71.1763 57.1726 72.9086 55.3381 72.9086 52.1037C72.9086 48.831 71.1252 47.054 68.856 47.054C67.1238 47.054 66.4015 48.0959 66.0499 48.8054H65.9157V47.1818H63.6401V60.6818ZM65.9093 52.0909C65.9093 50.1861 66.7275 48.9524 68.2168 48.9524C69.7573 48.9524 70.5499 50.2628 70.5499 52.0909C70.5499 53.9318 69.7445 55.2741 68.2168 55.2741C66.7402 55.2741 65.9093 53.9957 65.9093 52.0909ZM77.204 43.9091H74.8901V57H77.204V43.9091ZM83.93 57.1918C86.2184 57.1918 87.7908 56.0732 88.1999 54.3665L86.0394 54.1236C85.7262 54.9545 84.9592 55.3892 83.962 55.3892C82.4663 55.3892 81.4755 54.4048 81.4563 52.7237H88.2958V52.0142C88.2958 48.5689 86.2248 47.054 83.8086 47.054C80.9961 47.054 79.1616 49.1186 79.1616 52.1484C79.1616 55.2294 80.9705 57.1918 83.93 57.1918ZM81.4627 51.1641C81.533 49.9112 82.4599 48.8565 83.8406 48.8565C85.1701 48.8565 86.065 49.8281 86.0778 51.1641H81.4627ZM98.742 47.1818H96.2811L94.0183 54.4751H93.916L91.6596 47.1818H89.1923L92.6887 57H95.2456L98.742 47.1818ZM104.356 57.1918C106.644 57.1918 108.217 56.0732 108.626 54.3665L106.465 54.1236C106.152 54.9545 105.385 55.3892 104.388 55.3892C102.892 55.3892 101.901 54.4048 101.882 52.7237H108.722V52.0142C108.722 48.5689 106.651 47.054 104.234 47.054C101.422 47.054 99.5874 49.1186 99.5874 52.1484C99.5874 55.2294 101.396 57.1918 104.356 57.1918ZM101.888 51.1641C101.959 49.9112 102.886 48.8565 104.266 48.8565C105.596 48.8565 106.491 49.8281 106.504 51.1641H101.888ZM112.993 43.9091H110.679V57H112.993V43.9091ZM123.132 49.777C122.813 48.1151 121.483 47.054 119.182 47.054C116.817 47.054 115.206 48.2173 115.213 50.0327C115.206 51.4645 116.088 52.4105 117.974 52.8004L119.649 53.152C120.55 53.3501 120.972 53.7145 120.972 54.2706C120.972 54.9418 120.243 55.4467 119.144 55.4467C118.083 55.4467 117.392 54.9865 117.194 54.1044L114.938 54.3217C115.225 56.1243 116.74 57.1918 119.15 57.1918C121.605 57.1918 123.337 55.9197 123.343 54.0597C123.337 52.6598 122.436 51.8033 120.582 51.4006L118.907 51.0426C117.91 50.8189 117.514 50.4737 117.52 49.9048C117.514 49.2401 118.249 48.7798 119.214 48.7798C120.282 48.7798 120.844 49.3615 121.023 50.0071L123.132 49.777ZM129.598 57.1918C131.886 57.1918 133.459 56.0732 133.868 54.3665L131.707 54.1236C131.394 54.9545 130.627 55.3892 129.63 55.3892C128.134 55.3892 127.143 54.4048 127.124 52.7237H133.964V52.0142C133.964 48.5689 131.893 47.054 129.477 47.054C126.664 47.054 124.83 49.1186 124.83 52.1484C124.83 55.2294 126.638 57.1918 129.598 57.1918ZM127.131 51.1641C127.201 49.9112 128.128 48.8565 129.509 48.8565C130.838 48.8565 131.733 49.8281 131.746 51.1641H127.131Z" fill="#2D2D2D"/>
<path d="M44.6719 90.4929H46.1534C46.1087 88.8622 44.6669 87.679 42.5987 87.679C40.5554 87.679 38.9893 88.8473 38.9893 90.6023C38.9893 92.0192 40.0036 92.8494 41.6392 93.2919L42.8423 93.62C43.9311 93.9084 44.7713 94.2663 44.7713 95.1712C44.7713 96.1655 43.8217 96.8217 42.5142 96.8217C41.331 96.8217 40.3466 96.2947 40.2571 95.1861H38.7159C38.8153 97.0305 40.2422 98.169 42.5241 98.169C44.9155 98.169 46.2926 96.9112 46.2926 95.1861C46.2926 93.3516 44.657 92.6406 43.3643 92.3224L42.37 92.0639C41.5746 91.8601 40.5156 91.4872 40.5206 90.5128C40.5206 89.6477 41.3111 89.0064 42.5639 89.0064C43.7322 89.0064 44.5625 89.5533 44.6719 90.4929ZM49.4956 93.4659C49.4956 92.2479 50.2662 91.5518 51.3251 91.5518C52.3493 91.5518 52.9608 92.2031 52.9608 93.3217V98H54.4473V93.1428C54.4473 91.2386 53.4032 90.2642 51.8322 90.2642C50.644 90.2642 49.9281 90.7812 49.5701 91.6065H49.4757V87.8182H48.0091V98H49.4956V93.4659ZM59.6475 98.1541C61.8002 98.1541 63.2072 96.5781 63.2072 94.2166C63.2072 91.8402 61.8002 90.2642 59.6475 90.2642C57.4949 90.2642 56.0879 91.8402 56.0879 94.2166C56.0879 96.5781 57.4949 98.1541 59.6475 98.1541ZM59.6525 96.9062C58.2456 96.9062 57.5893 95.6783 57.5893 94.2116C57.5893 92.75 58.2456 91.5071 59.6525 91.5071C61.0495 91.5071 61.7058 92.75 61.7058 94.2116C61.7058 95.6783 61.0495 96.9062 59.6525 96.9062ZM64.8665 100.864H66.353V96.8118H66.4425C66.7109 97.299 67.2578 98.1491 68.6499 98.1491C70.4993 98.1491 71.8416 96.6676 71.8416 94.1967C71.8416 91.7209 70.4794 90.2642 68.6349 90.2642C67.218 90.2642 66.706 91.1293 66.4425 91.6016H66.3182V90.3636H64.8665V100.864ZM66.3232 94.1818C66.3232 92.5859 67.0192 91.527 68.3168 91.527C69.6641 91.527 70.3402 92.6655 70.3402 94.1818C70.3402 95.7131 69.6442 96.8814 68.3168 96.8814C67.0391 96.8814 66.3232 95.7876 66.3232 94.1818ZM73.5071 100.864H74.9936V96.8118H75.0831C75.3516 97.299 75.8984 98.1491 77.2905 98.1491C79.1399 98.1491 80.4822 96.6676 80.4822 94.1967C80.4822 91.7209 79.12 90.2642 77.2756 90.2642C75.8587 90.2642 75.3466 91.1293 75.0831 91.6016H74.9588V90.3636H73.5071V100.864ZM74.9638 94.1818C74.9638 92.5859 75.6598 91.527 76.9574 91.527C78.3047 91.527 78.9808 92.6655 78.9808 94.1818C78.9808 95.7131 78.2848 96.8814 76.9574 96.8814C75.6797 96.8814 74.9638 95.7876 74.9638 94.1818ZM82.1477 98H83.6342V90.3636H82.1477V98ZM82.8984 89.1854C83.4105 89.1854 83.8381 88.7876 83.8381 88.3004C83.8381 87.8132 83.4105 87.4105 82.8984 87.4105C82.3814 87.4105 81.9588 87.8132 81.9588 88.3004C81.9588 88.7876 82.3814 89.1854 82.8984 89.1854ZM87.1206 93.4659C87.1206 92.2479 87.8663 91.5518 88.9004 91.5518C89.9096 91.5518 90.5211 92.2131 90.5211 93.3217V98H92.0076V93.1428C92.0076 91.2536 90.9686 90.2642 89.4075 90.2642C88.2591 90.2642 87.5083 90.7962 87.1554 91.6065H87.0609V90.3636H85.6341V98H87.1206V93.4659ZM97.2029 101.023C99.1468 101.023 100.648 100.133 100.648 98.169V90.3636H99.1916V91.6016H99.0822C98.8187 91.1293 98.2917 90.2642 96.8699 90.2642C95.0254 90.2642 93.6681 91.7209 93.6681 94.152C93.6681 96.5881 95.0552 97.8857 96.8599 97.8857C98.2619 97.8857 98.8038 97.0952 99.0723 96.608H99.1667V98.1094C99.1667 99.3075 98.3464 99.8246 97.2179 99.8246C95.9799 99.8246 95.4977 99.2031 95.2342 98.7656L93.9565 99.2926C94.3592 100.227 95.3784 101.023 97.2029 101.023ZM97.188 96.6527C95.8606 96.6527 95.1696 95.6335 95.1696 94.1321C95.1696 92.6655 95.8457 91.527 97.188 91.527C98.4856 91.527 99.1816 92.5859 99.1816 94.1321C99.1816 95.7081 98.4707 96.6527 97.188 96.6527Z" fill="#2D2D2D"/>
<path d="M39.1186 109.818V120H40.5803V112.627H40.6747L43.6776 119.985H44.8906L47.8935 112.632H47.9879V120H49.4496V109.818H47.5852L44.3438 117.733H44.2244L40.983 109.818H39.1186ZM53.786 120.169C55.0488 120.169 55.7598 119.528 56.0431 118.956H56.1028V120H57.5545V114.929C57.5545 112.707 55.8045 112.264 54.5914 112.264C53.2093 112.264 51.9366 112.821 51.4395 114.213L52.8365 114.531C53.0552 113.989 53.612 113.467 54.6113 113.467C55.5708 113.467 56.063 113.969 56.063 114.835V114.869C56.063 115.411 55.5062 115.401 54.1341 115.56C52.6873 115.729 51.2058 116.107 51.2058 117.842C51.2058 119.344 52.3343 120.169 53.786 120.169ZM54.1092 118.976C53.269 118.976 52.6625 118.598 52.6625 117.862C52.6625 117.067 53.3684 116.783 54.2285 116.669C54.7108 116.604 55.8542 116.475 56.068 116.261V117.246C56.068 118.151 55.3471 118.976 54.1092 118.976ZM63.0991 112.364H61.533V110.534H60.0465V112.364H58.9279V113.557H60.0465V118.066C60.0415 119.453 61.1005 120.124 62.2738 120.099C62.7461 120.094 63.0643 120.005 63.2383 119.94L62.9698 118.712C62.8704 118.732 62.6864 118.777 62.4478 118.777C61.9656 118.777 61.533 118.618 61.533 117.758V113.557H63.0991V112.364ZM68.6213 109.341H67.2939L64.0126 121.531H65.34L68.6213 109.341ZM73.2995 120C76.4018 120 78.1966 118.076 78.1966 114.894C78.1966 111.727 76.4018 109.818 73.4039 109.818H70.0034V120H73.2995ZM71.5396 118.658V111.161H73.3095C75.5368 111.161 76.6852 112.493 76.6852 114.894C76.6852 117.305 75.5368 118.658 73.215 118.658H71.5396ZM79.9876 120H81.4741V115.337C81.4741 114.337 82.2447 113.616 83.2987 113.616C83.6069 113.616 83.9549 113.671 84.0742 113.706V112.284C83.9251 112.264 83.6317 112.249 83.4428 112.249C82.5479 112.249 81.7823 112.756 81.5039 113.577H81.4244V112.364H79.9876V120ZM86.5327 122.864C87.7607 122.864 88.5362 122.222 88.9787 121.019L92.1357 112.379L90.5298 112.364L88.5959 118.29H88.5163L86.5824 112.364H84.9915L87.7855 120.099L87.6016 120.607C87.2237 121.621 86.6918 121.705 85.8764 121.482L85.5185 122.7C85.6974 122.779 86.0852 122.864 86.5327 122.864ZM96.4796 120.154C98.2843 120.154 99.4526 119.07 99.6167 117.584H98.1699C97.981 118.409 97.3397 118.896 96.4895 118.896C95.2317 118.896 94.4213 117.847 94.4213 116.182C94.4213 114.546 95.2466 113.517 96.4895 113.517C97.4341 113.517 98.0108 114.114 98.1699 114.83H99.6167C99.4576 113.288 98.1998 112.264 96.4647 112.264C94.312 112.264 92.9199 113.885 92.9199 116.217C92.9199 118.518 94.2623 120.154 96.4796 120.154ZM101.206 120H102.693V117.29L103.434 116.55L106.029 120H107.853L104.552 115.64L107.645 112.364H105.865L102.822 115.595H102.693V109.818H101.206V120Z" fill="#2D2D2D"/>
<path d="M40.0085 131.818H38.348L42.0121 142H43.7869L47.451 131.818H45.7905L42.9567 140.111H42.8423L40.0085 131.818ZM50.2587 142.169C51.5215 142.169 52.2324 141.528 52.5158 140.956H52.5755V142H54.0272V136.929C54.0272 134.707 52.2772 134.264 51.0641 134.264C49.682 134.264 48.4093 134.821 47.9121 136.213L49.3091 136.531C49.5279 135.989 50.0847 135.467 51.084 135.467C52.0435 135.467 52.5357 135.969 52.5357 136.835V136.869C52.5357 137.411 51.9789 137.401 50.6067 137.56C49.16 137.729 47.6784 138.107 47.6784 139.842C47.6784 141.344 48.807 142.169 50.2587 142.169ZM50.5819 140.976C49.7417 140.976 49.1351 140.598 49.1351 139.862C49.1351 139.067 49.8411 138.783 50.7012 138.669C51.1834 138.604 52.3269 138.475 52.5407 138.261V139.246C52.5407 140.151 51.8198 140.976 50.5819 140.976ZM56.0071 142H57.4936V137.337C57.4936 136.337 58.2642 135.616 59.3182 135.616C59.6264 135.616 59.9744 135.671 60.0938 135.706V134.284C59.9446 134.264 59.6513 134.249 59.4624 134.249C58.5675 134.249 57.8018 134.756 57.5234 135.577H57.4439V134.364H56.0071V142ZM66.2175 138.833C66.2225 140.131 65.258 140.747 64.4228 140.747C63.503 140.747 62.8667 140.081 62.8667 139.042V134.364H61.3801V139.221C61.3801 141.115 62.4192 142.099 63.8858 142.099C65.0343 142.099 65.8148 141.493 66.1678 140.678H66.2473V142H67.709V134.364H66.2175V138.833ZM69.7063 142H71.1928V137.292C71.1928 136.263 71.9137 135.547 72.7589 135.547C73.5842 135.547 74.1559 136.094 74.1559 136.924V142H75.6374V137.133C75.6374 136.213 76.1992 135.547 77.1687 135.547C77.9542 135.547 78.6005 135.984 78.6005 137.018V142H80.087V136.879C80.087 135.134 79.1126 134.264 77.7305 134.264C76.6317 134.264 75.8065 134.791 75.4386 135.607H75.359C75.0259 134.771 74.3249 134.264 73.3058 134.264C72.2965 134.264 71.5458 134.766 71.2276 135.607H71.1332V134.364H69.7063V142ZM84.3017 142.169C85.5645 142.169 86.2754 141.528 86.5588 140.956H86.6184V142H88.0701V136.929C88.0701 134.707 86.3201 134.264 85.1071 134.264C83.725 134.264 82.4522 134.821 81.9551 136.213L83.3521 136.531C83.5708 135.989 84.1277 135.467 85.127 135.467C86.0865 135.467 86.5787 135.969 86.5787 136.835V136.869C86.5787 137.411 86.0218 137.401 84.6497 137.56C83.2029 137.729 81.7214 138.107 81.7214 139.842C81.7214 141.344 82.85 142.169 84.3017 142.169ZM84.6248 140.976C83.7846 140.976 83.1781 140.598 83.1781 139.862C83.1781 139.067 83.8841 138.783 84.7441 138.669C85.2264 138.604 86.3699 138.475 86.5836 138.261V139.246C86.5836 140.151 85.8627 140.976 84.6248 140.976ZM83.725 133.165C84.2221 133.165 84.6 132.763 84.6 132.3C84.6 131.808 84.2221 131.43 83.725 131.43C83.2576 131.43 82.845 131.808 82.845 132.3C82.845 132.763 83.2576 133.165 83.725 133.165ZM86.6483 133.165C87.1454 133.165 87.5233 132.763 87.5233 132.3C87.5233 131.808 87.1454 131.43 86.6483 131.43C86.1809 131.43 85.7683 131.808 85.7683 132.3C85.7683 132.763 86.1809 133.165 86.6483 133.165ZM90.0501 142H91.5366V137.337C91.5366 136.337 92.3072 135.616 93.3612 135.616C93.6694 135.616 94.0174 135.671 94.1367 135.706V134.284C93.9876 134.264 93.6942 134.249 93.5053 134.249C92.6104 134.249 91.8448 134.756 91.5664 135.577H91.4869V134.364H90.0501V142ZM95.4231 142H96.9096V139.29L97.6504 138.55L100.246 142H102.07L98.769 137.64L101.861 134.364H100.081L97.0389 137.595H96.9096V131.818H95.4231V142ZM106.193 142.154C107.858 142.154 109.037 141.334 109.375 140.091L107.968 139.837C107.699 140.558 107.053 140.926 106.208 140.926C104.935 140.926 104.08 140.101 104.04 138.629H109.469V138.102C109.469 135.343 107.819 134.264 106.088 134.264C103.961 134.264 102.559 135.885 102.559 138.232C102.559 140.603 103.941 142.154 106.193 142.154ZM104.045 137.516C104.105 136.432 104.89 135.492 106.098 135.492C107.252 135.492 108.007 136.347 108.012 137.516H104.045Z" fill="#2D2D2D"/>
<rect x="155" y="86" width="205" height="14" rx="7" fill="#F0F0F0"/>
<rect x="239" y="86" width="101" height="14" rx="7" fill="#E0C9BD"/>
<rect x="321.998" y="86" width="14.0022" height="14" rx="7" fill="#BF7D66"/>
<rect x="155" y="108" width="205" height="14" rx="7" fill="#F0F0F0"/>
<rect x="219" y="108" width="109" height="14" rx="7" fill="#E0C9BD"/>
<rect x="289.998" y="108" width="14.0022" height="14" rx="7" fill="#BF7D66"/>
<rect x="155" y="130" width="205" height="14" rx="7" fill="#F0F0F0"/>
<rect x="217.5" y="130" width="80" height="14" rx="7" fill="#E0C9BD"/>
<rect x="237.5" y="130" width="14.0022" height="14" rx="7" fill="#BF7D66"/>
</g>
</g>
<defs>
<filter id="filter0_dd" x="0" y="0" width="401" height="194" filterUnits="userSpaceOnUse" color-interpolation-filters="sRGB">
<feFlood flood-opacity="0" result="BackgroundImageFix"/>
<feColorMatrix in="SourceAlpha" type="matrix" values="0 0 0 0 0 0 0 0 0 0 0 0 0 0 0 0 0 0 127 0" result="hardAlpha"/>
<feOffset dy="4"/>
<feGaussianBlur stdDeviation="9"/>
<feColorMatrix type="matrix" values="0 0 0 0 0 0 0 0 0 0 0 0 0 0 0 0 0 0 0.07 0"/>
<feBlend mode="normal" in2="BackgroundImageFix" result="effect1_dropShadow"/>
<feColorMatrix in="SourceAlpha" type="matrix" values="0 0 0 0 0 0 0 0 0 0 0 0 0 0 0 0 0 0 127 0" result="hardAlpha"/>
<feOffset dy="1"/>
<feGaussianBlur stdDeviation="2"/>
<feColorMatrix type="matrix" values="0 0 0 0 0 0 0 0 0 0 0 0 0 0 0 0 0 0 0.12 0"/>
<feBlend mode="normal" in2="effect1_dropShadow" result="effect2_dropShadow"/>
<feBlend mode="normal" in="SourceGraphic" in2="effect2_dropShadow" result="shape"/>
</filter>
<clipPath id="clip0">
<rect x="18" y="14" width="365" height="158" rx="16" fill="white"/>
</clipPath>
</defs>
</svg>
