<?xml version="1.0" standalone="no"?>
<!DOCTYPE svg PUBLIC "-//W3C//DTD SVG 20010904//EN"
 "http://www.w3.org/TR/2001/REC-SVG-20010904/DTD/svg10.dtd">
<svg version="1.0" xmlns="http://www.w3.org/2000/svg"
 width="764.000000pt" height="208.000000pt" viewBox="0 0 764.000000 208.000000"
 preserveAspectRatio="xMidYMid meet">

<g transform="translate(0.000000,208.000000) scale(0.100000,-0.100000)"
fill="#000000" stroke="none">
<path d="M1257 2063 c-2 -5 -57 -107 -122 -228 -65 -121 -122 -222 -126 -225
-5 -3 -20 -32 -34 -64 -14 -33 -78 -156 -142 -275 l-116 -215 61 -116 c33 -63
101 -194 150 -290 126 -248 323 -624 331 -633 7 -7 421 222 448 247 9 8 -21
64 -125 231 -76 121 -148 238 -162 259 l-24 39 180 -7 c98 -3 239 -9 312 -13
l132 -6 0 272 c0 255 -1 272 -17 267 -10 -2 -150 -8 -312 -11 -246 -6 -292 -5
-285 6 4 8 77 124 161 258 85 134 152 245 151 247 -5 5 -450 264 -454 264 -1
0 -5 -3 -7 -7z m204 -174 c96 -56 175 -102 176 -103 1 -1 -76 -127 -173 -280
-96 -153 -173 -280 -172 -282 2 -1 113 1 248 6 135 5 282 9 328 10 l82 0 0
-205 0 -205 -107 5 c-212 11 -547 24 -550 21 -2 -2 74 -127 168 -279 94 -151
171 -279 171 -283 0 -8 -343 -207 -347 -202 -11 12 -235 452 -235 461 0 5 -13
31 -29 56 -42 66 -231 432 -231 447 0 14 208 403 225 420 7 7 18 27 25 46 11
29 242 468 246 468 1 0 79 -45 175 -101z"/>
<path d="M4840 2059 c-129 -22 -257 -115 -305 -222 -31 -67 -45 -184 -45 -367
0 -200 13 -300 51 -377 97 -200 375 -281 596 -173 80 40 164 129 193 206 22
61 39 200 40 327 l0 77 -225 0 -225 0 0 -95 0 -95 111 0 112 0 -6 -60 c-13
-124 -78 -191 -193 -198 -83 -6 -106 1 -154 44 -60 55 -65 79 -65 339 0 242 5
277 47 331 44 55 142 78 230 54 42 -12 100 -72 119 -124 l13 -36 114 0 114 0
-6 38 c-19 101 -104 225 -189 276 -85 49 -224 73 -327 55z"/>
<path d="M2360 1470 l0 -590 115 0 115 0 2 355 3 355 229 -355 228 -355 104 0
104 0 -2 588 -3 587 -112 3 -113 3 -2 -361 -3 -360 -231 358 -232 357 -101 3
-101 3 0 -591z"/>
<path d="M3490 1470 l0 -590 115 0 115 0 0 235 0 235 83 0 83 0 113 -235 114
-235 134 0 134 0 -87 168 c-48 92 -106 204 -130 249 -24 44 -44 84 -44 87 0 3
15 12 34 21 58 28 114 83 143 143 25 50 28 68 28 152 0 82 -4 103 -26 151 -31
66 -91 129 -150 159 -78 40 -158 50 -416 50 l-243 0 0 -590z m530 362 c102
-51 108 -204 11 -264 -32 -20 -52 -23 -173 -26 l-138 -4 0 156 0 156 133 0
c106 0 139 -4 167 -18z"/>
<path d="M5540 1470 l0 -590 115 0 115 0 0 590 0 590 -115 0 -115 0 0 -590z"/>
<path d="M5957 2053 c-4 -3 -7 -51 -7 -104 l0 -99 239 -2 240 -3 -250 -390
-249 -390 0 -92 0 -93 385 0 385 0 0 105 0 105 -245 0 c-135 0 -245 3 -245 6
0 4 110 179 245 390 l245 383 0 96 0 95 -368 0 c-203 0 -372 -3 -375 -7z"/>
<path d="M6870 1470 l0 -590 385 0 385 0 0 105 0 105 -270 0 -270 0 0 140 0
140 230 0 230 0 0 105 0 105 -230 0 -230 0 0 135 0 135 270 0 270 0 0 105 0
105 -385 0 -385 0 0 -590z"/>
<path d="M2521 618 c-47 -126 -211 -579 -211 -583 0 -3 22 -5 48 -5 l49 0 18
60 18 60 123 0 122 0 19 -57 20 -58 50 -3 51 -3 -95 258 c-53 142 -102 279
-111 306 -15 45 -17 47 -54 47 -31 0 -40 -5 -47 -22z m98 -261 c22 -65 41
-120 41 -123 0 -7 -180 -4 -180 4 -1 20 85 251 91 244 4 -4 25 -60 48 -125z"/>
<path d="M3019 617 c-24 -13 -57 -43 -74 -66 -30 -42 -30 -44 -33 -198 -4
-182 6 -222 70 -277 121 -104 325 -45 354 102 l7 32 -46 0 c-40 0 -46 -3 -57
-30 -19 -46 -56 -70 -106 -70 -54 0 -89 15 -111 49 -22 32 -32 253 -14 311 32
106 179 122 226 24 15 -31 20 -34 60 -34 51 0 56 10 29 63 -41 80 -103 117
-197 117 -48 0 -75 -6 -108 -23z"/>
<path d="M3594 626 c-51 -23 -100 -79 -113 -129 -14 -57 -14 -279 -1 -329 24
-87 106 -142 210 -143 53 0 73 5 112 27 47 29 82 74 98 128 l9 30 -50 0 c-38
0 -49 -3 -49 -16 0 -9 -15 -31 -34 -50 -30 -30 -40 -34 -84 -34 -62 0 -106 32
-122 88 -12 46 -13 213 0 266 12 55 48 87 102 93 57 7 103 -16 125 -62 15 -32
20 -35 61 -35 l45 0 -7 32 c-8 38 -45 89 -88 120 -41 29 -164 37 -214 14z"/>
<path d="M4050 335 l0 -305 195 0 195 0 0 40 0 40 -145 0 -145 0 0 90 0 90
125 0 125 0 0 45 0 45 -125 0 -125 0 0 90 0 90 145 0 145 0 0 40 0 40 -195 0
-195 0 0 -305z"/>
<path d="M4590 335 l0 -305 195 0 195 0 0 40 0 40 -145 0 -145 0 0 265 0 265
-50 0 -50 0 0 -305z"/>
<path d="M5110 335 l0 -305 195 0 195 0 0 40 0 40 -150 0 -150 0 0 90 0 89
128 3 127 3 0 40 0 40 -127 3 -128 3 0 89 0 90 150 0 150 0 0 40 0 40 -195 0
-195 0 0 -305z"/>
<path d="M5650 336 l0 -306 45 0 45 0 0 125 0 125 60 0 60 0 62 -125 63 -125
52 0 c29 0 53 2 53 4 0 2 -30 61 -66 130 -62 119 -69 146 -40 146 6 0 27 15
45 34 76 78 57 214 -39 270 -30 18 -55 21 -187 24 l-153 4 0 -306z m275 210
c40 -17 55 -42 55 -91 0 -69 -56 -99 -175 -93 l-60 3 -3 84 c-2 46 -1 90 2 98
7 18 136 17 181 -1z"/>
<path d="M6368 593 c-8 -26 -58 -164 -111 -306 l-95 -258 51 3 50 3 20 58 19
57 122 0 123 0 18 -60 18 -60 49 0 c47 0 49 1 42 23 -4 12 -53 148 -109 302
l-103 280 -39 3 c-38 3 -39 2 -55 -45z m107 -237 l45 -126 -95 0 -95 0 45 127
c25 70 45 129 45 132 0 17 16 -22 55 -133z"/>
<path d="M6690 600 l0 -39 83 -3 82 -3 3 -262 2 -263 45 0 45 0 0 265 0 265
85 0 85 0 0 40 0 40 -215 0 -215 0 0 -40z"/>
<path d="M7250 335 l0 -305 195 0 195 0 0 40 0 40 -150 0 -150 0 0 90 0 90
125 0 125 0 0 45 0 45 -125 0 -125 0 0 90 0 90 150 0 150 0 0 40 0 40 -195 0
-195 0 0 -305z"/>
</g>
</svg>
