<svg width="405" height="93" viewBox="0 0 405 93" fill="none" xmlns="http://www.w3.org/2000/svg">
<g clip-path="url(#clip0)">
<path fill-rule="evenodd" clip-rule="evenodd" d="M12.581 50.1592C14.5637 50.1592 16.1766 48.5463 16.1766 46.5557C16.1766 44.565 14.5716 42.96 12.581 42.96C10.5904 42.96 8.98528 44.5729 8.98528 46.5635C8.98528 48.5541 10.5982 50.1592 12.581 50.1592ZM30.9056 62.1737H45.9099C54.7142 62.1737 61.8426 55.0374 61.8426 46.2409V16.4054C61.8426 7.60108 54.7063 0.472656 45.9099 0.472656H15.9327C7.12843 0.472656 0 7.60895 0 16.4054V31.4333C17.0343 31.4333 30.8426 45.1866 30.9056 62.1737Z" fill="#0095BA"/>
<path fill-rule="evenodd" clip-rule="evenodd" d="M0 92.999V77.5698C0 69.0487 6.90812 62.1406 15.4292 62.1406H30.9056C30.9056 79.1828 17.0657 92.999 0 92.999Z" fill="#00809E"/>
<path fill-rule="evenodd" clip-rule="evenodd" d="M349.97 34.871C349.97 37.373 348.774 39.2142 347.358 40.2999C345.076 42.0388 342.031 42.0388 335.178 42.0388H325.17C325.17 39.8672 325.17 34.4304 327.892 31.2832C330.284 28.4586 334.202 27.0423 339.096 27.0423C342.464 27.0423 345.296 27.8055 347.145 29.3241C348.774 30.638 349.86 32.8096 349.97 34.871ZM327.672 61.3862C325.17 58.0187 325.17 51.6063 325.17 48.7817H335.178C342.896 48.7817 347.578 48.7817 352.141 45.5243C355.186 43.3527 357.578 39.6548 357.578 34.8789C357.468 30.638 355.407 26.6253 352.141 23.903C348.876 21.2987 344.525 19.8824 339.088 19.8824C331.37 19.8824 324.839 22.7071 321.362 27.5931C317.443 33.022 317.443 38.0261 317.443 46.4999C317.443 53.5654 317.443 60.0801 321.574 65.7294C325.052 70.403 331.031 73.1175 338.538 73.1175C344.195 73.1175 349.844 71.9215 354.958 69.3172L351.803 62.7946C347.885 64.856 343.211 65.9418 338.538 65.9418C333.329 65.9497 329.851 64.321 327.672 61.3862ZM253.508 50.7408C253.508 57.1532 253.508 60.5208 251.439 62.9126C249.59 65.0842 246.434 65.9576 242.414 65.9576C238.936 65.9576 235.891 65.3045 233.822 63.8961C231.863 62.4799 230.344 60.0959 230.344 57.051C230.344 53.6834 231.973 51.1814 233.932 49.773C236.977 47.6015 240.895 47.6015 244.586 47.6015H253.508V50.7408ZM261.124 50.7408V42.6997C261.124 36.9403 261.124 30.5279 256.773 25.6418C253.508 21.9517 248.614 19.8824 242.091 19.8824C236.222 19.8824 230.675 21.1885 225.561 23.0296L227.953 29.8748C232.524 28.136 237.308 27.0502 242.091 27.0502C246.222 27.0502 249.055 28.136 250.904 30.1974C253.516 33.1322 253.516 37.4753 253.516 40.8428H244.601C240.36 40.8428 234.271 40.8428 229.156 44.5408C225.679 47.0428 222.744 51.2758 222.744 57.0352C222.744 62.6845 225.679 67.0276 229.266 69.5296C232.744 72.0317 237.205 73.1175 242.422 73.1175C248.944 73.1175 254.059 71.2685 257.324 67.4682C261.124 63.0149 261.124 58.0187 261.124 50.7408ZM194.679 26.3972C190.328 31.5035 190.328 36.6098 190.328 45.4063V73.0545H197.944V45.4142C197.944 38.569 197.944 34.0055 200.556 30.9606C202.625 28.4586 206.323 27.0502 210.234 27.0502C212.083 27.0502 213.822 27.3728 215.348 27.9157L217.63 21.0705C215.458 20.3073 212.956 19.8746 210.234 19.8746C205.222 19.8824 198.92 21.401 194.679 26.3972ZM171.295 50.7408C171.295 57.1532 171.295 60.5208 169.226 62.9126C167.377 65.0842 164.222 65.9576 160.201 65.9576C156.723 65.9576 153.678 65.3045 151.609 63.8961C149.65 62.4799 148.131 60.0959 148.131 57.051C148.131 53.6834 149.76 51.1814 151.719 49.773C154.764 47.6015 158.682 47.6015 162.373 47.6015H171.287V50.7408H171.295ZM178.911 50.7408V42.6997C178.911 36.9403 178.911 30.5279 174.56 25.6418C171.295 21.9517 166.401 19.8824 159.878 19.8824C154.009 19.8824 148.462 21.1885 143.348 23.0296L145.74 29.8748C150.311 28.136 155.095 27.0502 159.878 27.0502C164.009 27.0502 166.842 28.136 168.691 30.1974C171.303 33.1322 171.303 37.4753 171.303 40.8428H162.388C158.147 40.8428 152.058 40.8428 146.943 44.5408C143.466 47.0428 140.531 51.2758 140.531 57.0352C140.531 62.6845 143.466 67.0276 147.054 69.5296C150.531 72.0317 154.992 73.1175 160.209 73.1175C166.731 73.1175 171.846 71.2685 175.111 67.4682C178.911 63.0149 178.911 58.0187 178.911 50.7408ZM95.935 26.3972C91.584 31.5035 91.584 36.6098 91.584 45.4063V92.8898H99.2002V66.4926C102.135 70.6233 106.919 73.1175 112.253 73.1175C118.666 73.1175 123.78 70.5131 126.935 66.705C131.829 60.8355 131.829 53.6677 131.829 46.2796C131.829 39.5446 131.829 31.9362 126.612 26.0746C123.245 22.3845 118.021 19.8824 111.498 19.8824C106.486 19.8824 100.176 21.401 95.935 26.3972ZM111.482 27.0502C115.503 27.0502 118.768 28.4586 120.727 30.638C124.205 34.5484 124.205 40.0875 124.205 46.2796C124.205 52.3616 124.205 58.3413 120.94 62.1416C118.98 64.4233 115.825 65.9418 111.695 65.9418C107.564 65.9418 104.409 64.4233 102.45 62.1416C99.1845 58.3413 99.1845 52.3616 99.1845 44.3205C99.1845 38.5611 99.1845 33.9977 101.797 30.9606C103.874 28.4664 107.572 27.0502 111.482 27.0502ZM405.274 19.8746L392.709 76.9177C391.513 82.2444 390.64 85.6119 388.248 88.3263C385.966 90.9307 382.268 92.9999 377.697 92.9999C375.305 92.9999 372.803 92.4571 370.411 91.5837L372.693 84.8487C374.431 85.5017 376.06 85.8243 377.697 85.8243C379.766 85.8243 381.174 85.1713 382.37 83.9753C383.897 82.4568 384.542 79.9548 386.068 72.8972C383.023 72.4644 380.521 71.0482 379.003 69.0969C377.374 66.9253 376.934 64.9662 374.542 57.1454L363.282 19.8352H371.261L381.717 55.5167C383.346 61.1659 384.109 63.5578 384.762 64.5334C385.415 65.5091 386.501 65.7294 387.587 65.8395L397.461 19.8352H405.266V19.8746H405.274ZM273.626 0.0078125V73.023H281.243V48.7817C283.092 48.7817 284.61 48.6715 286.137 48.2388C286.137 48.2388 297.758 64.7852 303.423 72.7791C303.478 72.8578 303.596 73.023 303.596 73.023H312.841L292.439 44.2182C293.525 43.1324 294.067 42.3692 295.484 40.5281L311.267 19.8195H302.132L289.181 36.5076C287.553 38.569 286.679 39.6548 285.594 40.5281C284.177 41.6139 282.769 41.6139 281.243 41.6139V0.0078125H273.626Z" fill="#3D3D3D"/>
</g>
<defs>
<clipPath id="clip0">
<rect width="405" height="93" fill="white"/>
</clipPath>
</defs>
</svg>
