<svg width="131" height="97" viewBox="0 0 131 97" fill="none" xmlns="http://www.w3.org/2000/svg">
<path d="M-1.09278e-07 22.5L-9.83506e-07 2.5C-1.05636e-06 0.833333 0.847221 -3.70333e-08 2.54167 -1.111e-07L58.4583 -2.55529e-06C60.1528 -2.62936e-06 61 0.833331 61 2.5L61 22.5C61 24.1667 60.1528 25 58.4583 25L2.54167 25C0.847222 25 -3.64262e-08 24.1667 -1.09278e-07 22.5Z" fill="#ECECEC"/>
<path d="M73.5 0L93.5 0C95.1667 0 96 0.847222 96 2.54167L96 58.4583C96 60.1528 95.1667 61 93.5 61L73.5 61C71.8333 61 71 60.1528 71 58.4583L71 2.54167C71 0.847222 71.8333 0 73.5 0Z" fill="#ECECEC"/>
<path d="M108.5 0L128.5 0C130.167 0 131 0.847222 131 2.54167V58.4583C131 60.1528 130.167 61 128.5 61L108.5 61C106.833 61 106 60.1528 106 58.4583L106 2.54167C106 0.847222 106.833 0 108.5 0Z" fill="#ECECEC"/>
<rect x="36" y="35" width="25" height="26" rx="2" fill="#ECECEC"/>
<rect x="106" y="71" width="25" height="26" rx="2" fill="#ECECEC"/>
</svg>
