<svg width="131" height="98" viewBox="0 0 131 98" fill="none" xmlns="http://www.w3.org/2000/svg">
<path d="M-1.09278e-07 22.5L-9.83506e-07 2.5C-1.05636e-06 0.833333 0.847221 -3.70333e-08 2.54167 -1.111e-07L58.4583 -2.55529e-06C60.1528 -2.62936e-06 61 0.833331 61 2.5L61 22.5C61 24.1667 60.1528 25 58.4583 25L2.54167 25C0.847222 25 -3.64262e-08 24.1667 -1.09278e-07 22.5Z" fill="#ECECEC"/>
<rect y="72" width="25" height="26" rx="2" fill="#ECECEC"/>
<rect x="71" width="25" height="26" rx="2" fill="#ECECEC"/>
<rect x="106" y="36" width="25" height="26" rx="2" fill="#ECECEC"/>
<rect x="71" y="72" width="25" height="26" rx="2" fill="#ECECEC"/>
</svg>
