<svg width="130" height="95" viewBox="0 0 130 95" fill="none" xmlns="http://www.w3.org/2000/svg">
<path d="M2.5 35L22.5 35C24.1667 35 25 35.8333 25 37.5L25 92.5C25 94.1667 24.1667 95 22.5 95H2.5C0.833333 95 0 94.1667 0 92.5L0 37.5C0 35.8333 0.833333 35 2.5 35Z" fill="#ECECEC"/>
<path d="M37.5 0L57.5 0C59.1667 0 60 0.833333 60 2.5L60 57.5C60 59.1667 59.1667 60 57.5 60L37.5 60C35.8333 60 35 59.1667 35 57.5L35 2.5C35 0.833333 35.8333 0 37.5 0Z" fill="#ECECEC"/>
<rect x="70" y="36" width="25" height="25" rx="2" fill="#ECECEC"/>
<rect x="105" y="1" width="25" height="25" rx="2" fill="#ECECEC"/>
</svg>
