<svg width="352" height="112" viewBox="0 0 352 112" fill="none" xmlns="http://www.w3.org/2000/svg">
<g clip-path="url(#clip0)">
<path d="M2.55072 0H22.9565C24.657 0 25.5072 0.848485 25.5072 2.54545V25.4545H58.6667C60.3672 25.4545 61.2174 26.303 61.2174 28V84C61.2174 85.697 60.3672 86.5455 58.6667 86.5455H2.55072C0.850242 86.5455 0 85.697 0 84V2.54545C0 0.848485 0.850242 0 2.55072 0Z" fill="black"/>
<path d="M84.1757 25.4531H140.292C141.992 25.4531 142.842 26.3016 142.842 27.9986V83.9986C142.842 85.6956 141.992 86.544 140.292 86.544H84.1757C82.4752 86.544 81.625 85.6956 81.625 83.9986V27.9986C81.625 26.3016 82.4752 25.4531 84.1757 25.4531Z" fill="black"/>
<path d="M165.797 25.4531H221.913C223.613 25.4531 224.463 26.3016 224.463 27.9986V83.9986C224.463 85.6956 223.613 86.544 221.913 86.544H165.797C164.096 86.544 163.246 85.6956 163.246 83.9986V27.9986C163.246 26.3016 164.096 25.4531 165.797 25.4531Z" fill="black"/>
<path d="M247.422 25.4531H267.828C269.528 25.4531 270.378 26.3016 270.378 27.9986V83.9986C270.378 85.6956 269.528 86.544 267.828 86.544H247.422C245.721 86.544 244.871 85.6956 244.871 83.9986V27.9986C244.871 26.3016 245.721 25.4531 247.422 25.4531Z" fill="black"/>
<path d="M293.332 25.4531H349.448C351.148 25.4531 351.999 26.3016 351.999 27.9986V109.453C351.999 111.15 351.148 111.999 349.448 111.999H329.042C327.342 111.999 326.491 111.15 326.491 109.453V86.544H293.332C291.631 86.544 290.781 85.6955 290.781 83.9986V27.9986C290.781 26.3016 291.631 25.4531 293.332 25.4531Z" fill="black"/>
</g>
<defs>
<clipPath id="clip0">
<rect width="352" height="112" fill="white"/>
</clipPath>
</defs>
</svg>
